<?xml version="1.0" encoding="UTF-8" standalone="no"?>
<!-- Created with Inkscape (http://www.inkscape.org/) -->

<svg
   xmlns:dc="http://purl.org/dc/elements/1.1/"
   xmlns:cc="http://creativecommons.org/ns#"
   xmlns:rdf="http://www.w3.org/1999/02/22-rdf-syntax-ns#"
   xmlns:svg="http://www.w3.org/2000/svg"
   xmlns="http://www.w3.org/2000/svg"
   xmlns:sodipodi="http://sodipodi.sourceforge.net/DTD/sodipodi-0.dtd"
   xmlns:inkscape="http://www.inkscape.org/namespaces/inkscape"
   width="142.03085mm"
   height="67.886673mm"
   viewBox="0 0 503.25893 240.54333"
   id="svg11757"
   version="1.1"
   inkscape:version="0.92.4 5da689c313, 2019-01-14"
   sodipodi:docname="logo_variant_thick.svg">
  <defs
     id="defs11759" />
  <sodipodi:namedview
     id="base"
     pagecolor="#ffffff"
     bordercolor="#666666"
     borderopacity="1.0"
     inkscape:pageopacity="0.0"
     inkscape:pageshadow="2"
     inkscape:zoom="0.9899495"
     inkscape:cx="174.10089"
     inkscape:cy="132.01859"
     inkscape:document-units="px"
     inkscape:current-layer="layer1"
     showgrid="false"
     inkscape:window-width="1366"
     inkscape:window-height="750"
     inkscape:window-x="0"
     inkscape:window-y="18"
     inkscape:window-maximized="0"
     fit-margin-top="10"
     fit-margin-right="10"
     fit-margin-bottom="10"
     fit-margin-left="10" />
  <metadata
     id="metadata11762">
    <rdf:RDF>
      <cc:Work
         rdf:about="">
        <dc:format>image/svg+xml</dc:format>
        <dc:type
           rdf:resource="http://purl.org/dc/dcmitype/StillImage" />
        <dc:title />
      </cc:Work>
    </rdf:RDF>
  </metadata>
  <g
     inkscape:label="Layer 1"
     inkscape:groupmode="layer"
     id="layer1"
     transform="translate(-120.41789,-405.90975)">
    <g
       id="g32">
      <g
         aria-label="Hackspace
Siegen"
         style="font-style:normal;font-variant:normal;font-weight:normal;font-stretch:normal;font-size:20.89682198px;line-height:0%;font-family:BigNoodleTitling;-inkscape-font-specification:BigNoodleTitling;text-align:end;letter-spacing:1.79578614px;word-spacing:0px;text-anchor:end;display:inline;fill:#000000;fill-opacity:1;stroke:none;stroke-width:1.74140179"
         id="text3918">
        <path
           d="m 171.22289,539.15845 v -23.41706 h -8.47611 v 23.41706 h -6.89582 v -51.57498 h 6.89582 v 21.90859 h 8.47611 v -21.90859 h 6.89582 v 51.57498 z"
           style="font-size:71.83145142px;line-height:1;stroke-width:1.74140179"
           id="path14" />
        <path
           d="m 192.94405,539.15845 h -6.89582 v -42.73972 q 0,-8.83526 8.26062,-8.83526 h 5.17186 q 8.26062,0 8.26062,8.83526 v 42.73972 h -6.89582 v -18.89167 h -7.90146 z m 7.90146,-25.14101 v -17.16772 q 0,-3.01692 -3.01692,-3.01692 h -1.86762 q -3.01692,0 -3.01692,3.01692 v 17.16772 z"
           style="font-size:71.83145142px;line-height:1;stroke-width:1.74140179"
           id="path16" />
        <path
           d="m 236.31678,527.09076 v 3.30425 q 0,8.76344 -8.26062,8.76344 h -4.45355 q -8.26062,0 -8.26062,-8.76344 V 496.3469 q 0,-8.76343 8.26062,-8.76343 h 4.45355 q 8.26062,0 8.26062,8.76343 v 5.81835 h -6.89582 v -5.31553 q 0,-3.01692 -3.08876,-3.01692 h -1.36479 q -2.7296,0 -2.7296,3.01692 v 33.04247 q 0,3.01692 2.7296,3.01692 h 1.72395 q 2.7296,0 2.7296,-3.01692 v -2.80143 z"
           style="font-size:71.83145142px;line-height:1;stroke-width:1.74140179"
           id="path18" />
        <path
           d="m 250.34748,539.15845 h -6.89582 v -51.57498 h 6.89582 z m 15.87475,0 h -6.89582 l -8.61977,-25.21284 v -0.43099 l 7.18314,-25.93115 h 6.32117 l -7.25498,25.64382 z"
           style="font-size:71.83145142px;line-height:1;stroke-width:1.74140179"
           id="path20" />
        <path
           d="m 285.12064,501.44694 v -4.52539 q 0,-3.08875 -3.01692,-3.08875 h -1.07748 q -2.94509,0 -2.94509,3.08875 v 8.54795 q 0,1.43663 0.57466,1.93945 0.57465,0.50282 1.86761,1.29296 l 6.53667,3.51974 q 2.15494,1.22114 3.01692,1.93945 0.93381,0.64649 1.43663,1.65213 0.50282,0.9338 0.50282,3.6634 v 10.99021 q 0,8.69161 -8.33245,8.69161 h -4.23806 q -8.26061,0 -8.26061,-9.48175 v -2.58594 h 6.89581 v 2.80143 q 0,3.01692 3.08876,3.01692 h 1.22113 q 2.7296,0 2.7296,-3.01692 v -8.76344 q 0,-1.43663 -0.57465,-1.93945 -0.57466,-0.50282 -1.86762,-1.29296 l -6.53666,-3.66341 q -2.15495,-1.1493 -3.16059,-1.93945 -0.93381,-0.79014 -1.3648,-2.01128 -0.43098,-1.29296 -0.43098,-3.30424 v -10.55923 q 0,-8.83526 8.26061,-8.83526 h 4.30989 q 8.26062,0 8.26062,8.83526 v 5.02821 z"
           style="font-size:71.83145142px;line-height:1;stroke-width:1.74140179"
           id="path22" />
        <path
           d="m 299.51386,487.58347 h 12.57051 q 8.33245,0 8.33245,8.83526 v 15.3001 q 0,8.76344 -8.26062,8.76344 h -5.74652 v 18.67618 h -6.89582 z m 6.89582,26.64946 h 4.38172 q 2.7296,0 2.7296,-3.01692 v -14.36629 q 0,-3.01692 -3.08876,-3.01692 h -4.02256 z"
           style="font-size:71.83145142px;line-height:1;stroke-width:1.74140179"
           id="path24" />
        <path
           d="m 334.22193,539.15845 h -6.89582 v -42.73972 q 0,-8.83526 8.26062,-8.83526 h 5.17186 q 8.26062,0 8.26062,8.83526 v 42.73972 h -6.89582 v -18.89167 h -7.90146 z m 7.90146,-25.14101 v -17.16772 q 0,-3.01692 -3.01692,-3.01692 h -1.86762 q -3.01692,0 -3.01692,3.01692 v 17.16772 z"
           style="font-size:71.83145142px;line-height:1;stroke-width:1.74140179"
           id="path26" />
        <path
           d="m 377.59465,527.09076 v 3.30425 q 0,8.76344 -8.26061,8.76344 h -4.45355 q -8.26062,0 -8.26062,-8.76344 V 496.3469 q 0,-8.76343 8.26062,-8.76343 h 4.45355 q 8.26061,0 8.26061,8.76343 v 5.81835 h -6.89581 v -5.31553 q 0,-3.01692 -3.08876,-3.01692 h -1.36479 q -2.7296,0 -2.7296,3.01692 v 33.04247 q 0,3.01692 2.7296,3.01692 h 1.72395 q 2.7296,0 2.7296,-3.01692 v -2.80143 z"
           style="font-size:71.83145142px;line-height:1;stroke-width:1.74140179"
           id="path28" />
        <path
           d="m 384.72953,539.15845 v -51.57498 h 17.09589 v 6.24933 h -10.20007 v 15.65926 h 9.05076 v 6.24933 h -9.05076 v 17.16772 h 10.20007 v 6.24934 z"
           style="font-size:71.83145142px;line-height:1;stroke-width:1.74140179"
           id="path30" />
        <path
           d="m 273.50414,573.27839 v -4.52538 q 0,-3.08876 -3.01692,-3.08876 h -1.07747 q -2.94509,0 -2.94509,3.08876 v 8.54794 q 0,1.43663 0.57465,1.93945 0.57465,0.50282 1.86762,1.29296 l 6.53666,3.51974 q 2.15495,1.22114 3.01692,1.93945 0.93381,0.64649 1.43663,1.65213 0.50282,0.93381 0.50282,3.6634 v 10.99021 q 0,8.69161 -8.33245,8.69161 h -4.23805 q -8.26062,0 -8.26062,-9.48175 v -2.58594 h 6.89582 v 2.80143 q 0,3.01692 3.08875,3.01692 h 1.22114 q 2.72959,0 2.72959,-3.01692 v -8.76344 q 0,-1.43662 -0.57465,-1.93944 -0.57465,-0.50282 -1.86762,-1.29297 l -6.53666,-3.6634 q -2.15494,-1.14931 -3.16058,-1.93945 -0.93381,-0.79015 -1.3648,-2.01128 -0.43099,-1.29297 -0.43099,-3.30425 v -10.55922 q 0,-8.83527 8.26062,-8.83527 h 4.30989 q 8.26061,0 8.26061,8.83527 v 5.0282 z"
           style="font-size:71.83145142px;line-height:1;stroke-width:1.74140179"
           id="path32" />
        <path
           d="m 287.89737,610.9899 v -51.57498 h 6.89582 v 51.57498 z"
           style="font-size:71.83145142px;line-height:1;stroke-width:1.74140179"
           id="path34" />
        <path
           d="m 303.02126,610.9899 v -51.57498 h 17.09588 v 6.24933 h -10.20006 v 15.65926 h 9.05076 v 6.24934 h -9.05076 v 17.16771 h 10.20006 v 6.24934 z"
           style="font-size:71.83145142px;line-height:1;stroke-width:1.74140179"
           id="path36" />
        <path
           d="m 337.47454,592.09823 v -6.24934 h 10.48739 v 25.14101 h -13.50431 q -7.97329,0 -7.97329,-8.69161 v -34.0481 q 0,-8.83527 7.97329,-8.83527 h 4.74087 q 8.76344,0 8.76344,8.97893 v 5.60285 h -6.89582 v -4.59721 q 0,-3.73524 -2.94509,-3.73524 h -1.72395 q -3.01692,0 -3.01692,3.73524 v 31.60584 q 0,3.73523 3.01692,3.73523 h 4.66904 v -12.64233 z"
           style="font-size:71.83145142px;line-height:1;stroke-width:1.74140179"
           id="path38" />
        <path
           d="m 355.29547,610.9899 v -51.57498 h 17.09589 v 6.24933 h -10.20007 v 15.65926 h 9.05076 v 6.24934 h -9.05076 v 17.16771 h 10.20007 v 6.24934 z"
           style="font-size:71.83145142px;line-height:1;stroke-width:1.74140179"
           id="path40" />
        <path
           d="m 393.41216,584.34043 v -24.92551 h 6.89582 v 51.57498 h -6.89582 V 600.718 l -7.39864,-23.48888 v 33.76078 h -6.89582 v -51.57498 h 6.89582 z"
           style="font-size:71.83145142px;line-height:1;stroke-width:1.74140179"
           id="path42" />
      </g>
      <g
         transform="matrix(1.7312018,0,0,1.7312099,-163.35855,-881.9153)"
         id="g3450">
        <path
           inkscape:connector-curvature="0"
           id="path3088-3"
           d="m 361.26972,764.64165 -24.84375,24.8438 v 0.4687 l 25.3125,-25.3125 z m 6.84375,0 -31.6875,31.75 v 0.4688 l 32.15625,-32.2188 z m 6.90625,0 -38.59375,38.5938 v 0.5 l 39.09375,-39.0938 z m 6.90625,0 -45.5,45.50001 v 0.5 l 45.96875,-46.00001 z m 6.875,0 -11.5625,11.5625 h 0.53125 l 11.5625,-11.5625 z m 6.90625,0 -11.5625,11.5625 h 0.46875 l 11.5625,-11.5625 z m 6.875,0 -11.5625,11.5625 h 0.5 l 11.5625,-11.5625 z m 6.90625,0 -11.5625,11.5625 h 0.46875 l 11.5625,-11.5625 z m 6.84375,0 -16.4375,16.4375 h 0.53125 l 16.4375,-16.4375 z m 6.9375,0 -18.71875,18.7188 v 0.4687 l 19.1875,-19.1875 z m 6.875,0 -21.3125,21.3125 h 0.46875 l 21.3125,-21.3125 z m 3.71875,3.2188 -24.4375,24.4062 v 0.5 l 24.4375,-24.4375 z m 0,6.8437 -24.4375,24.4375 v 0.5 l 24.4375,-24.4375 z m -58.53125,3.4063 -38.90625,38.93741 v 0.5 l 38.90625,-38.90621 z m 58.53125,3.4997 -24.4375,24.4374 v 0.4688 l 24.4375,-24.4375 z m -58.53125,3.4062 -0.9375,0.9375 h 0.46875 l 0.46875,-0.4687 z m 58.53125,3.4686 -26.65625,26.65621 h 0.5 l 26.15625,-26.15621 z m -63.40625,1.4062 -34.03125,34.03121 v 0.5 l 34.03125,-34.06241 z m 63.40625,5.5 -19.75,19.75001 h 0.46875 l 19.28125,-19.25001 z m -68.25,6.25 -13.5,13.50001 h 0.46875 l 13.03125,-13.03121 z m 68.25,0.625 -14.71875,14.71881 v 0.4687 l 14.71875,-14.71871 z m -68.25,6.25001 -6.625,6.625 h 0.46875 l 6.15625,-6.1562 z m 68.25,0.625 -14.71875,14.7188 v 0.5 l 14.71875,-14.7188 z m -28.6875,1.1562 -0.625,0.625 v 0.4688 l 1.09375,-1.0938 z m 28.6875,5.7813 -14.71875,14.7187 v 0.4688 l 14.71875,-14.7188 z m -87.75,5.0625 -9.6875,9.6875 v 0.4687 l 9.6875,-9.6874 z m 87.75,1.8125 -14.71875,14.7187 v 0.4688 l 14.71875,-14.7188 z m -87.75,5.0625 -9.6875,9.6875 v 0.4687 l 9.6875,-9.6874 z m 87.75,1.812 -32.28125,32.25 h 0.46875 l 31.8125,-31.7813 z m -87.75,5.0937 -9.6875,9.6876 v 0.5 l 9.6875,-9.6876 z m 87.75,1.7813 -25.375,25.375 h 0.5 l 24.875,-24.875 z m -85.46875,2.8125 -11.96875,11.9688 v 0.5 l 12.46875,-12.4688 z m 6.875,0 -18.84375,18.8438 v 0.5 l 19.34375,-19.3438 z m 6.875,0 -22.59375,22.5625 h 0.5625 l 22.5625,-22.5625 z m 6.90625,0 -22.5625,22.5625 h 0.46875 l 22.5625,-22.5625 z m 6.875,0 -22.5625,22.5625 h 0.46875 l 22.5625,-22.5625 z m 6.90625,0 -22.5625,22.5625 h 0.5 l 22.5625,-22.5625 z m 6.875,0 -22.5625,22.5625 h 0.46875 l 22.59375,-22.5625 z m 6.90625,0 -22.5625,22.5625 h 0.46875 l 22.5625,-22.5625 z m 6.875,0 -22.5625,22.5625 h 0.5 l 22.5625,-22.5625 z m 6.90625,0 -22.5625,22.5625 h 0.5 l 22.5625,-22.5625 z m 6.90625,0 -22.59375,22.5625 h 0.46875 l 22.59375,-22.5625 z"
           style="color:#000000;font-style:normal;font-variant:normal;font-weight:normal;font-stretch:normal;font-size:medium;line-height:normal;font-family:Sans;-inkscape-font-specification:Sans;text-indent:0;text-align:start;text-decoration:none;text-decoration-line:none;letter-spacing:normal;word-spacing:normal;text-transform:none;writing-mode:lr-tb;direction:ltr;baseline-shift:baseline;text-anchor:start;display:inline;overflow:visible;visibility:visible;fill:#000000;fill-opacity:1;stroke:#000000;stroke-width:0.57424998;stroke-miterlimit:4;stroke-dasharray:none;stroke-opacity:1;marker:none;enable-background:accumulate"
           sodipodi:nodetypes="cccccccccccccccccccccccccccccccccccccccccccccccccccccccccccccccccccccccccccccccccccccccccccccccccccccccccccccccccccccccccccccccccccccccccccccccccccccccccccccccccccccccccccccccccccccccccccccccccccccccccccccccccc" />
        <path
           sodipodi:nodetypes="cccccccccccccccccccccccccccccccccccccccccccccccccccccccccccccccccccccccccccccccccc"
           style="color:#000000;font-style:normal;font-variant:normal;font-weight:normal;font-stretch:normal;font-size:medium;line-height:normal;font-family:Sans;-inkscape-font-specification:Sans;text-indent:0;text-align:start;text-decoration:none;text-decoration-line:none;letter-spacing:normal;word-spacing:normal;text-transform:none;writing-mode:lr-tb;direction:ltr;baseline-shift:baseline;text-anchor:start;display:inline;overflow:visible;visibility:visible;fill:#000000;fill-opacity:1;stroke:none;stroke-width:0.28712499;stroke-miterlimit:4;stroke-dasharray:none;stroke-opacity:1;marker:none;enable-background:accumulate"
           d="m 380.20722,781.07875 v 9.7187 h 4.875 v -9.7187 z m 4.875,9.7187 v 9.75 h 4.875 v -9.75 z m 4.875,0 h 4.84375 4.875 v -4.8437 h -4.875 v -4.875 h -4.84375 z m 9.71875,0 v 14.625 h 4.875 v -14.625 z m 0,14.625 h -4.875 v 4.87501 h 4.875 z m -14.59375,-4.8746 h -4.875 v 9.75001 h 4.875 z m -4.875,0 v -9.75 h -4.875 v 9.75 z m -4.875,0 h -4.875 v 9.75001 h 4.875 z m -4.875,14.59331 v 4.875 h 4.875 v 4.875 h 4.875 v -9.75 z m 9.75,9.75 v 4.875 h 4.875 v -4.875 z m 4.875,-9.75 v 4.875 h 4.875 v 4.875 h 4.84375 v -9.75 z m -34.09375,4.875 v 4.875 h 14.625 v -4.875 z m 48.6875,0 v 4.875 h 14.625 v -4.875 z m -48.6875,9.75 v 4.875 h 14.625 v -4.875 z m 48.6875,0 v 4.875 h 14.625 v -4.875 z"
           id="path3429"
           inkscape:connector-curvature="0" />
      </g>
    </g>
  </g>
</svg>
