<?xml version="1.0" encoding="utf-8"?>
<!-- Generator: Adobe Illustrator 25.2.1, SVG Export Plug-In . SVG Version: 6.00 Build 0)  -->
<svg version="1.1" id="Ebene_1" xmlns="http://www.w3.org/2000/svg" xmlns:xlink="http://www.w3.org/1999/xlink" x="0px" y="0px"
	 viewBox="0 0 283.46 283.46" style="enable-background:new 0 0 283.46 283.46;" xml:space="preserve">
<style type="text/css">
	.st0{fill:#020203;}
</style>
<path d="M102.21,115.3c-0.61,0.07-1.17-0.08-1.67-0.48c-0.51-0.4-0.8-0.9-0.87-1.51l-3.01-24.52c-0.08-0.61,0.09-1.17,0.48-1.68
	c0.4-0.51,0.9-0.8,1.51-0.87l2.27-0.28c0.61-0.07,1.16,0.09,1.66,0.48c0.49,0.4,0.78,0.9,0.85,1.51l1.08,8.76
	c0.03,0.24,0.16,0.34,0.4,0.31l8.2-1.01c0.24-0.03,0.34-0.16,0.31-0.4l-1.08-8.76c-0.08-0.61,0.08-1.17,0.46-1.67
	c0.38-0.5,0.88-0.79,1.49-0.87l2.27-0.28c0.61-0.07,1.17,0.09,1.68,0.48c0.51,0.4,0.8,0.9,0.87,1.51l3.01,24.52
	c0.08,0.61-0.09,1.17-0.48,1.68s-0.9,0.8-1.51,0.87l-2.27,0.28c-0.61,0.08-1.16-0.09-1.66-0.48c-0.49-0.4-0.78-0.9-0.85-1.51
	l-1.22-9.95c-0.03-0.21-0.16-0.3-0.4-0.27l-8.2,1.01c-0.24,0.03-0.35,0.15-0.32,0.36l1.22,9.95c0.07,0.61-0.08,1.17-0.46,1.67
	c-0.38,0.5-0.88,0.79-1.49,0.87L102.21,115.3z"/>
<path d="M129.08,112c-0.61,0.08-1.16-0.08-1.66-0.48s-0.78-0.9-0.85-1.51l-3.01-24.52c-0.08-0.61,0.08-1.17,0.46-1.67
	c0.38-0.5,0.88-0.79,1.49-0.87l14.09-1.73c0.61-0.08,1.16,0.09,1.65,0.48c0.49,0.4,0.78,0.9,0.85,1.51l0.11,0.92
	c0.08,0.61-0.08,1.17-0.46,1.67c-0.38,0.51-0.88,0.79-1.49,0.87l-9.24,1.13c-0.21,0.03-0.31,0.15-0.28,0.36l0.64,5.25
	c0.03,0.24,0.15,0.35,0.36,0.32l8.44-1.04c0.61-0.08,1.16,0.09,1.66,0.48c0.49,0.4,0.78,0.9,0.85,1.51l0.07,0.6
	c0.07,0.61-0.08,1.17-0.46,1.67c-0.38,0.51-0.88,0.79-1.49,0.87l-8.44,1.04c-0.21,0.03-0.31,0.15-0.28,0.36l0.79,6.45
	c0.03,0.21,0.15,0.31,0.36,0.28l9.24-1.13c0.61-0.08,1.16,0.09,1.65,0.48c0.49,0.4,0.78,0.9,0.85,1.51l0.11,0.92
	c0.07,0.61-0.08,1.17-0.46,1.67s-0.88,0.79-1.49,0.87L129.08,112z"/>
<path d="M155.42,97.13l-10.2-14.59c-0.29-0.42-0.34-0.87-0.12-1.34c0.21-0.47,0.58-0.74,1.11-0.8l3.22-0.4
	c0.69-0.08,1.34,0.02,1.94,0.33c0.6,0.3,1.08,0.76,1.42,1.36l5.65,9.81c0,0.03,0.02,0.04,0.04,0.03c0.03,0,0.04-0.02,0.03-0.04
	l3.11-10.89c0.19-0.67,0.54-1.22,1.05-1.67c0.51-0.44,1.11-0.7,1.8-0.79l3.07-0.38c0.5-0.06,0.92,0.11,1.25,0.51
	c0.33,0.4,0.41,0.85,0.22,1.33l-6.36,16.62c-0.08,0.2-0.11,0.43-0.08,0.7l1.05,8.52c0.07,0.61-0.08,1.17-0.46,1.67
	s-0.88,0.79-1.49,0.87l-2.47,0.3c-0.61,0.08-1.17-0.08-1.67-0.48c-0.51-0.4-0.8-0.9-0.87-1.51l-1.05-8.52
	C155.58,97.47,155.51,97.25,155.42,97.13z"/>
<path d="M169.98,111.42c-0.58,0.07-1.08-0.09-1.49-0.48c-0.41-0.39-0.6-0.89-0.57-1.49l0.66-7.76c0.05-0.65,0.32-1.22,0.78-1.69
	c0.47-0.47,1.03-0.75,1.7-0.83l3.18-0.39c0.53-0.07,0.98,0.11,1.34,0.52c0.36,0.41,0.48,0.88,0.36,1.41l-2.08,8.09
	c-0.16,0.67-0.5,1.23-1.01,1.68c-0.51,0.45-1.11,0.72-1.8,0.81L169.98,111.42z"/>
<path d="M62.52,165.75c-0.73,0.09-1.34-0.13-1.85-0.67c-0.5-0.53-0.68-1.16-0.52-1.89l6.52-33.58c0.17-0.86,0.58-1.6,1.23-2.21
	c0.65-0.61,1.4-0.96,2.27-1.07l3.43-0.42c0.9-0.11,1.75,0.05,2.54,0.48s1.36,1.04,1.7,1.85l14.4,31.01
	c0.33,0.66,0.31,1.32-0.05,1.96c-0.36,0.64-0.9,1.01-1.63,1.1l-3.48,0.43c-0.87,0.11-1.68-0.07-2.44-0.52
	c-0.76-0.45-1.29-1.08-1.6-1.88l-1.85-4.78c-0.07-0.27-0.26-0.39-0.57-0.35l-10.38,1.28c-0.28,0.03-0.43,0.19-0.47,0.48l-0.64,5.09
	c-0.11,0.86-0.47,1.59-1.1,2.22c-0.63,0.62-1.37,0.99-2.24,1.09L62.52,165.75z M72.67,133.83l-1.96,15.37
	c-0.02,0.11,0.02,0.2,0.11,0.28c0.1,0.08,0.2,0.11,0.3,0.09l6.96-0.85c0.1-0.01,0.19-0.07,0.27-0.17c0.08-0.1,0.09-0.2,0.04-0.29
	l-5.62-14.44c0-0.03-0.02-0.05-0.06-0.05C72.68,133.77,72.67,133.79,72.67,133.83z"/>
<path d="M98.24,161.36c-0.8,0.1-1.52-0.11-2.18-0.63c-0.66-0.51-1.04-1.17-1.14-1.97l-3.93-31.99c-0.1-0.8,0.11-1.52,0.63-2.18
	c0.52-0.66,1.17-1.04,1.97-1.14l3.22-0.4c0.8-0.1,1.52,0.11,2.16,0.63c0.64,0.52,1.01,1.18,1.11,1.97l3.34,27.21
	c0.03,0.28,0.21,0.4,0.52,0.36l12.62-1.55c0.79-0.1,1.52,0.11,2.18,0.63c0.66,0.52,1.04,1.17,1.14,1.97l0.17,1.4
	c0.1,0.8-0.11,1.53-0.63,2.19c-0.52,0.66-1.17,1.04-1.97,1.14L98.24,161.36z"/>
<path d="M115.05,128.25c-0.8,0.1-1.52-0.11-2.19-0.63c-0.66-0.52-1.04-1.17-1.14-1.97l-0.17-1.4c-0.1-0.8,0.11-1.52,0.63-2.18
	s1.17-1.04,1.97-1.14l23.16-2.84c0.8-0.1,1.52,0.11,2.18,0.63c0.66,0.52,1.04,1.17,1.14,1.97l0.17,1.4c0.1,0.8-0.11,1.53-0.63,2.19
	c-0.52,0.66-1.17,1.04-1.97,1.14l-6.65,0.82c-0.28,0.03-0.4,0.19-0.36,0.47l3.34,27.21c0.1,0.8-0.11,1.53-0.63,2.18
	c-0.52,0.66-1.17,1.04-1.97,1.14l-3.12,0.38c-0.8,0.1-1.53-0.11-2.19-0.63c-0.66-0.51-1.04-1.17-1.14-1.97l-3.34-27.21
	c-0.03-0.28-0.19-0.4-0.47-0.36L115.05,128.25z"/>
<path d="M181.89,151.09c-0.8,0.1-1.52-0.11-2.19-0.63c-0.66-0.51-1.04-1.17-1.14-1.97l-3.9-31.73c-0.11-0.87,0.09-1.64,0.58-2.34
	c0.49-0.69,1.15-1.12,1.98-1.3c3.04-0.69,6.19-1.23,9.44-1.63c5.19-0.64,9.18-0.13,11.96,1.51c2.78,1.64,4.4,4.27,4.84,7.87
	c0.29,2.32-0.13,4.49-1.26,6.51c-1.12,2.02-2.73,3.56-4.81,4.62c-0.04,0-0.05,0.02-0.05,0.06c0.01,0.07,0.05,0.1,0.12,0.09
	c1.81,0.76,3.5,2.63,5.06,5.6l3.93,7.53c0.32,0.63,0.31,1.26-0.03,1.9c-0.34,0.64-0.86,1-1.55,1.09l-3.17,0.39
	c-0.9,0.11-1.75-0.05-2.54-0.48c-0.79-0.43-1.38-1.04-1.75-1.84l-3.51-7.16c-0.66-1.39-1.37-2.31-2.13-2.74
	c-0.76-0.43-1.86-0.56-3.32-0.38l-2.18,0.27c-0.28,0.03-0.4,0.21-0.36,0.52l1.3,10.59c0.1,0.8-0.11,1.53-0.63,2.19
	c-0.52,0.66-1.17,1.04-1.97,1.14L181.89,151.09z M183.8,119.44l1.22,9.97c0.04,0.31,0.19,0.45,0.47,0.42l2.49-0.31
	c2.42-0.3,4.21-1.04,5.37-2.21c1.16-1.18,1.62-2.69,1.4-4.52c-0.44-3.6-3.04-5.11-7.78-4.53c-1.07,0.13-2,0.32-2.78,0.55
	C183.89,118.92,183.76,119.13,183.8,119.44z"/>
<path d="M214.95,134.91c-0.83,0.1-1.57-0.1-2.21-0.6s-1.05-1.16-1.22-1.98l-3.5-19.92c-0.13-0.79,0.04-1.52,0.52-2.17
	c0.48-0.66,1.12-1.03,1.92-1.13l4.67-0.57c0.8-0.1,1.52,0.11,2.16,0.63s0.98,1.18,1.01,1.98l1.48,20.16
	c0.07,0.83-0.17,1.58-0.7,2.22c-0.54,0.64-1.22,1.02-2.05,1.12L214.95,134.91z M218.06,138.74c0.8-0.1,1.52,0.11,2.19,0.63
	c0.66,0.52,1.04,1.17,1.14,1.97l0.23,1.87c0.1,0.8-0.11,1.53-0.63,2.18c-0.52,0.66-1.17,1.04-1.97,1.14l-3.12,0.38
	c-0.8,0.1-1.53-0.11-2.19-0.63c-0.66-0.51-1.04-1.17-1.14-1.97l-0.23-1.87c-0.1-0.8,0.11-1.52,0.63-2.19
	c0.52-0.66,1.17-1.04,1.97-1.14L218.06,138.74z"/>
<path d="M141.67,235.5c-46.65,0-87.17-34.88-93-82.34c-6.3-51.31,30.32-98.19,81.64-104.49c51.32-6.31,98.19,30.32,104.49,81.64l0,0
	c6.3,51.31-30.32,98.19-81.64,104.49C149.3,235.27,145.46,235.5,141.67,235.5z M141.8,52.49c-3.62,0-7.26,0.22-10.94,0.67
	c-23.66,2.91-44.77,14.85-59.45,33.63c-14.68,18.78-21.16,42.16-18.25,65.82c6,48.84,50.61,83.7,99.45,77.7
	c48.84-6,83.7-50.61,77.7-99.45C224.76,85.69,186.19,52.49,141.8,52.49z"/>
<path d="M141.46,275.08c-29.58,0-58.14-9.79-81.82-28.29c-28.06-21.93-45.91-53.47-50.25-88.82C0.43,85.01,52.51,18.35,125.48,9.39
	c72.97-8.96,139.63,43.12,148.59,116.09c4.34,35.35-5.34,70.27-27.27,98.34c-21.93,28.06-53.47,45.91-88.82,50.25
	C152.46,274.75,146.94,275.08,141.46,275.08z M141.83,12.91c-5.22,0-10.48,0.32-15.79,0.97C55.54,22.54,5.22,86.93,13.88,157.43
	c4.19,34.15,21.43,64.62,48.55,85.81c27.11,21.18,60.85,30.54,95,26.35c34.15-4.19,64.62-21.43,85.81-48.55
	c21.18-27.11,30.54-60.85,26.35-95C261.58,60.85,205.9,12.91,141.83,12.91z"/>
<g>
	<path d="M25.25,140.9l11.8-3.91c0.25-0.08,0.49-0.04,0.71,0.11c0.22,0.16,0.33,0.37,0.33,0.63l0.03,1.87
		c0.01,0.32-0.09,0.6-0.28,0.85c-0.19,0.25-0.44,0.41-0.75,0.48l-1.46,0.34c-0.1,0.03-0.15,0.09-0.15,0.19l0.05,3.26
		c0,0.13,0.05,0.2,0.16,0.21l1.47,0.3c0.31,0.06,0.56,0.21,0.76,0.46c0.2,0.25,0.3,0.53,0.31,0.84l0.03,1.79
		c0,0.27-0.1,0.48-0.32,0.64c-0.21,0.16-0.45,0.21-0.7,0.13l-11.91-3.56c-0.31-0.08-0.56-0.26-0.75-0.51
		c-0.19-0.26-0.29-0.55-0.3-0.88l-0.03-1.83c0-0.32,0.09-0.61,0.27-0.87C24.7,141.19,24.95,141.01,25.25,140.9z M32.65,144.15
		l-0.03-1.98c0-0.04-0.02-0.07-0.05-0.1s-0.07-0.04-0.11-0.03l-4.96,1.18c-0.01,0-0.02,0.01-0.02,0.02c0,0.01,0.01,0.02,0.02,0.02
		l4.99,1.03c0.04,0.01,0.07,0,0.1-0.03S32.65,144.18,32.65,144.15z"/>
	<path d="M35.98,126.76c0.03-0.29,0.16-0.53,0.4-0.73c0.24-0.19,0.5-0.27,0.79-0.24l0.97,0.1c0.29,0.03,0.53,0.16,0.72,0.4
		c0.19,0.24,0.27,0.5,0.24,0.79l-0.76,7.32c-0.03,0.29-0.16,0.53-0.4,0.72c-0.24,0.19-0.5,0.27-0.79,0.24l-11.68-1.21
		c-0.29-0.03-0.53-0.16-0.72-0.4s-0.27-0.5-0.24-0.79l0.18-1.72c0.03-0.29,0.16-0.53,0.4-0.72c0.24-0.19,0.5-0.27,0.79-0.24
		l9.46,0.98c0.11,0.01,0.18-0.04,0.19-0.15L35.98,126.76z"/>
	<path d="M27.31,114.63c0.06-0.29,0.21-0.52,0.47-0.69s0.52-0.23,0.81-0.17l0.95,0.19c0.29,0.06,0.52,0.21,0.69,0.47
		c0.17,0.25,0.23,0.52,0.17,0.81l-0.45,2.28c-0.02,0.11,0.02,0.18,0.14,0.2l9.33,1.84c0.29,0.06,0.52,0.21,0.69,0.46
		c0.17,0.25,0.23,0.51,0.17,0.8l-0.34,1.72c-0.06,0.29-0.21,0.51-0.46,0.68c-0.25,0.16-0.52,0.22-0.81,0.16l-9.33-1.84
		c-0.11-0.02-0.18,0.02-0.2,0.14l-0.45,2.28c-0.06,0.29-0.21,0.51-0.46,0.68c-0.25,0.17-0.52,0.23-0.81,0.17l-0.95-0.19
		c-0.29-0.06-0.52-0.21-0.69-0.47c-0.17-0.25-0.23-0.52-0.17-0.81L27.31,114.63z"/>
	<path d="M31.01,102.28c0.09-0.28,0.27-0.49,0.54-0.63c0.27-0.14,0.55-0.16,0.83-0.07l0.83,0.27c0.28,0.09,0.49,0.27,0.63,0.54
		c0.14,0.27,0.16,0.55,0.07,0.83l-1.25,3.88c-0.03,0.11,0,0.18,0.09,0.21l1.87,0.6c0.11,0.04,0.18,0,0.22-0.11l1.14-3.52
		c0.09-0.28,0.27-0.49,0.54-0.63c0.27-0.14,0.55-0.16,0.82-0.07l0.65,0.21c0.28,0.09,0.49,0.27,0.63,0.54
		c0.14,0.27,0.16,0.55,0.07,0.83l-1.14,3.52c-0.04,0.11,0,0.18,0.09,0.21l2.23,0.72c0.11,0.04,0.18,0,0.22-0.11l1.25-3.88
		c0.09-0.28,0.27-0.49,0.54-0.63c0.27-0.14,0.55-0.16,0.83-0.07l0.83,0.27c0.28,0.09,0.49,0.27,0.62,0.54
		c0.14,0.27,0.17,0.55,0.08,0.82l-2.14,6.64c-0.09,0.28-0.27,0.49-0.54,0.63c-0.27,0.14-0.55,0.16-0.83,0.07l-11.17-3.61
		c-0.28-0.09-0.49-0.27-0.62-0.54c-0.14-0.27-0.16-0.55-0.08-0.82L31.01,102.28z"/>
	<path d="M48.83,87.7l2.95,0.41c0.27,0.04,0.46,0.17,0.57,0.41c0.11,0.23,0.11,0.47-0.01,0.7l-0.81,1.54
		c-0.15,0.29-0.38,0.51-0.67,0.66s-0.59,0.19-0.91,0.13l-2.69-0.46C46.81,91,46.44,91,46.18,91.11s-0.49,0.31-0.65,0.63l-0.32,0.61
		c-0.05,0.1-0.03,0.18,0.07,0.23l3.19,1.68c0.26,0.14,0.43,0.35,0.52,0.64s0.07,0.57-0.07,0.83l-0.72,1.37
		c-0.14,0.26-0.35,0.43-0.64,0.52c-0.29,0.09-0.57,0.07-0.83-0.07l-10.31-5.42c-0.27-0.14-0.46-0.35-0.58-0.64
		c-0.12-0.28-0.11-0.57,0-0.85c0.48-1.15,1.03-2.33,1.67-3.54c1.77-3.37,3.92-4.4,6.46-3.07c0.71,0.37,1.25,0.93,1.63,1.69
		c0.38,0.75,0.52,1.54,0.41,2.38c-0.01,0.01,0,0.02,0.01,0.03c0.02,0.01,0.04,0.01,0.04,0c0.37-0.24,0.76-0.39,1.17-0.45
		C47.64,87.6,48.17,87.61,48.83,87.7z M43.17,90.28c0.3-0.57,0.4-1.1,0.28-1.58s-0.42-0.85-0.91-1.11
		c-1.07-0.56-1.93-0.22-2.58,1.01c-0.15,0.28-0.27,0.55-0.36,0.8c-0.03,0.11,0,0.2,0.11,0.25l2.82,1.48
		c0.1,0.05,0.18,0.03,0.23-0.07L43.17,90.28z"/>
	<path d="M46.78,72.48c0.17-0.24,0.4-0.39,0.7-0.45c0.3-0.06,0.57,0,0.81,0.16l0.72,0.5c0.24,0.17,0.39,0.4,0.45,0.7
		c0.06,0.3,0,0.57-0.16,0.81L47,77.57c-0.06,0.09-0.05,0.17,0.03,0.23l1.62,1.11c0.09,0.06,0.17,0.05,0.24-0.04l2.09-3.05
		c0.17-0.24,0.4-0.39,0.7-0.45c0.3-0.06,0.57,0,0.81,0.16l0.57,0.39c0.24,0.17,0.39,0.4,0.45,0.7c0.06,0.3,0,0.57-0.16,0.81
		l-2.09,3.05c-0.06,0.09-0.05,0.17,0.03,0.23l1.93,1.32c0.09,0.06,0.17,0.05,0.24-0.05l2.3-3.37c0.17-0.24,0.4-0.39,0.7-0.45
		c0.3-0.06,0.57,0,0.81,0.16l0.72,0.5c0.24,0.17,0.39,0.4,0.45,0.7c0.06,0.3,0,0.57-0.16,0.81l-3.94,5.76
		c-0.17,0.24-0.4,0.39-0.7,0.45c-0.3,0.06-0.57,0-0.81-0.16l-9.69-6.63c-0.24-0.17-0.39-0.4-0.45-0.7c-0.06-0.3,0-0.57,0.16-0.81
		L46.78,72.48z"/>
	<path d="M63.61,68.95c0.11-0.24,0.29-0.39,0.54-0.45c0.25-0.06,0.48,0,0.68,0.17l0.78,0.67c0.25,0.22,0.41,0.48,0.47,0.8
		c0.06,0.32,0.01,0.61-0.16,0.88c-0.45,0.75-0.99,1.5-1.62,2.23c-1.41,1.63-2.97,2.51-4.69,2.62c-1.71,0.12-3.45-0.59-5.21-2.11
		c-1.72-1.49-2.67-3.08-2.85-4.78c-0.18-1.7,0.42-3.34,1.8-4.94c0.63-0.73,1.29-1.37,1.97-1.93c0.25-0.21,0.53-0.3,0.85-0.29
		c0.32,0.02,0.61,0.13,0.86,0.35l0.81,0.7c0.2,0.17,0.29,0.39,0.28,0.66c-0.02,0.26-0.14,0.46-0.36,0.61
		c-0.69,0.45-1.28,0.96-1.78,1.54c-0.67,0.77-0.92,1.6-0.77,2.48c0.15,0.89,0.74,1.77,1.75,2.65c1,0.87,1.97,1.3,2.92,1.29
		s1.77-0.4,2.45-1.18C62.86,70.31,63.28,69.66,63.61,68.95z"/>
	<path d="M66.47,51.42c0.22-0.2,0.48-0.29,0.78-0.27c0.3,0.02,0.55,0.13,0.75,0.35l7.86,8.72c0.2,0.22,0.29,0.48,0.27,0.78
		c-0.02,0.3-0.13,0.56-0.35,0.75l-1.22,1.1c-0.22,0.2-0.48,0.29-0.78,0.27c-0.31-0.02-0.56-0.13-0.75-0.35l-2.99-3.31
		c-0.08-0.08-0.15-0.09-0.23-0.03l-2.31,2.08c-0.09,0.08-0.09,0.16-0.01,0.24l2.99,3.31c0.2,0.22,0.29,0.48,0.27,0.78
		c-0.02,0.31-0.13,0.56-0.35,0.75l-1.22,1.1c-0.22,0.2-0.48,0.29-0.78,0.27c-0.31-0.02-0.56-0.13-0.75-0.35l-7.86-8.72
		c-0.2-0.22-0.29-0.48-0.27-0.78c0.02-0.3,0.13-0.55,0.35-0.75l1.22-1.1c0.22-0.2,0.48-0.29,0.78-0.27s0.56,0.13,0.75,0.35
		l2.73,3.03c0.08,0.08,0.16,0.09,0.24,0.01l2.31-2.08c0.08-0.07,0.08-0.14,0-0.23l-2.73-3.03c-0.2-0.22-0.29-0.48-0.27-0.78
		c0.02-0.31,0.13-0.56,0.35-0.75L66.47,51.42z"/>
	<path d="M78.94,42.33c0.24-0.17,0.51-0.22,0.81-0.17c0.3,0.06,0.53,0.2,0.7,0.45l6.65,9.67c0.17,0.24,0.22,0.51,0.17,0.81
		c-0.06,0.3-0.2,0.53-0.45,0.7l-1.19,0.82c-0.6,0.41-1.21,0.44-1.84,0.08l-6.47-3.6c-0.01-0.01-0.02-0.01-0.03,0
		c-0.01,0.01-0.01,0.02,0,0.03l3.69,5.37c0.17,0.24,0.22,0.51,0.17,0.81c-0.06,0.3-0.21,0.53-0.45,0.7l-1.19,0.82
		c-0.24,0.17-0.51,0.22-0.81,0.17c-0.3-0.06-0.53-0.2-0.7-0.45l-6.65-9.67c-0.17-0.24-0.22-0.51-0.16-0.81
		c0.06-0.3,0.2-0.53,0.44-0.7l1.19-0.82c0.6-0.41,1.21-0.44,1.84-0.08l6.47,3.6c0.01,0.01,0.02,0.01,0.03,0
		c0.01-0.01,0.01-0.01,0-0.03l-3.69-5.37c-0.17-0.24-0.22-0.51-0.17-0.81c0.06-0.3,0.2-0.53,0.45-0.7L78.94,42.33z"/>
	<path d="M90.69,35.84c0.26-0.13,0.54-0.16,0.83-0.06c0.29,0.09,0.5,0.27,0.64,0.53l0.41,0.78c0.13,0.26,0.16,0.53,0.06,0.83
		c-0.09,0.29-0.27,0.5-0.53,0.64l-3.62,1.88c-0.1,0.05-0.13,0.12-0.08,0.21l0.91,1.74c0.05,0.1,0.13,0.13,0.23,0.07l3.28-1.71
		c0.26-0.13,0.53-0.16,0.83-0.06s0.5,0.27,0.64,0.53l0.32,0.61c0.13,0.26,0.16,0.54,0.06,0.83s-0.27,0.5-0.53,0.64l-3.28,1.71
		c-0.1,0.05-0.13,0.12-0.08,0.21l1.08,2.08c0.05,0.1,0.13,0.13,0.23,0.07l3.62-1.88c0.26-0.14,0.54-0.16,0.83-0.07
		c0.29,0.09,0.5,0.27,0.64,0.53l0.41,0.78c0.13,0.26,0.16,0.53,0.06,0.83c-0.09,0.29-0.27,0.5-0.53,0.64l-6.19,3.22
		c-0.26,0.13-0.53,0.16-0.83,0.06c-0.29-0.09-0.5-0.27-0.64-0.53l-5.42-10.41c-0.13-0.26-0.16-0.53-0.06-0.83
		c0.09-0.29,0.27-0.5,0.53-0.64L90.69,35.84z"/>
	<path d="M107.97,39.68l1.94,2.26c0.17,0.21,0.23,0.43,0.16,0.68c-0.07,0.25-0.23,0.42-0.48,0.52l-1.62,0.62
		c-0.31,0.12-0.62,0.13-0.94,0.05c-0.32-0.08-0.57-0.25-0.76-0.51l-1.7-2.13c-0.29-0.37-0.57-0.6-0.84-0.7
		c-0.27-0.1-0.57-0.09-0.9,0.04l-0.64,0.24c-0.11,0.04-0.14,0.12-0.1,0.22l1.28,3.37c0.1,0.27,0.09,0.55-0.03,0.83
		c-0.13,0.28-0.32,0.47-0.6,0.57l-1.44,0.55c-0.27,0.1-0.55,0.09-0.83-0.03c-0.28-0.12-0.47-0.32-0.57-0.6l-4.13-10.89
		c-0.11-0.29-0.11-0.57-0.01-0.86c0.1-0.29,0.29-0.5,0.57-0.63c1.12-0.55,2.32-1.06,3.59-1.55c3.56-1.35,5.85-0.69,6.87,1.98
		c0.28,0.75,0.32,1.53,0.1,2.34c-0.21,0.82-0.64,1.5-1.27,2.05c-0.01,0-0.01,0.01-0.01,0.02c0.01,0.02,0.02,0.03,0.03,0.03
		c0.43,0.07,0.82,0.21,1.17,0.43S107.53,39.18,107.97,39.68z M102.02,37.86c0.61-0.23,1.03-0.56,1.26-1s0.25-0.92,0.06-1.44
		c-0.43-1.13-1.3-1.44-2.6-0.95c-0.3,0.11-0.56,0.23-0.8,0.36c-0.1,0.06-0.13,0.15-0.09,0.26l1.13,2.98
		c0.04,0.11,0.11,0.14,0.22,0.1L102.02,37.86z"/>
	<path d="M122.66,25.76c0.29-0.06,0.56,0,0.81,0.17c0.25,0.17,0.41,0.4,0.46,0.69l0.17,0.86c0.06,0.29,0,0.56-0.17,0.81
		c-0.17,0.25-0.4,0.41-0.69,0.46l-3.82,0.74c-0.11,0.02-0.16,0.08-0.14,0.18l0.45,2.3c0.02,0.11,0.09,0.16,0.2,0.14l3.44-0.67
		c0.29-0.06,0.56,0,0.81,0.17c0.25,0.17,0.41,0.4,0.46,0.69l0.13,0.67c0.06,0.29,0,0.56-0.17,0.81c-0.17,0.25-0.4,0.41-0.69,0.46
		l-3.44,0.67c-0.11,0.02-0.16,0.09-0.14,0.2l0.78,4c0.06,0.29,0,0.56-0.17,0.81c-0.17,0.25-0.4,0.41-0.69,0.46l-1.61,0.31
		c-0.29,0.06-0.56,0-0.81-0.17c-0.25-0.17-0.41-0.4-0.46-0.69l-2.24-11.52c-0.06-0.29,0-0.56,0.17-0.81
		c0.17-0.25,0.4-0.41,0.69-0.46L122.66,25.76z"/>
	<path d="M137.37,24.24c0.29-0.02,0.55,0.07,0.78,0.26c0.23,0.2,0.36,0.44,0.38,0.74l0.58,7.66c0.14,1.77-0.23,3.14-1.1,4.1
		c-0.87,0.96-2.2,1.5-4,1.64c-1.8,0.14-3.2-0.2-4.21-1.02c-1-0.82-1.58-2.11-1.71-3.88l-0.58-7.66c-0.02-0.29,0.07-0.55,0.27-0.78
		c0.2-0.23,0.44-0.36,0.74-0.38l1.67-0.13c0.29-0.02,0.55,0.07,0.78,0.26c0.23,0.2,0.36,0.44,0.38,0.74l0.6,7.94
		c0.06,0.73,0.23,1.24,0.52,1.52c0.29,0.28,0.74,0.39,1.34,0.35c0.61-0.05,1.04-0.23,1.28-0.55c0.24-0.32,0.34-0.84,0.28-1.58
		l-0.6-7.94c-0.02-0.29,0.07-0.55,0.26-0.79c0.2-0.23,0.44-0.36,0.74-0.38L137.37,24.24z M129.89,20.42l1.06-0.08
		c0.29-0.02,0.55,0.07,0.78,0.26c0.23,0.2,0.36,0.44,0.38,0.74l0.07,0.88c0.02,0.29-0.07,0.55-0.27,0.78
		c-0.2,0.23-0.44,0.36-0.74,0.38l-1.06,0.08c-0.29,0.02-0.55-0.07-0.78-0.27c-0.23-0.2-0.36-0.44-0.38-0.74l-0.07-0.87
		c-0.02-0.29,0.07-0.55,0.26-0.78C129.35,20.57,129.6,20.44,129.89,20.42z M134.26,20.08l1.06-0.08c0.29-0.02,0.55,0.07,0.79,0.26
		c0.23,0.2,0.36,0.44,0.38,0.74l0.07,0.87c0.02,0.29-0.07,0.55-0.26,0.79c-0.2,0.23-0.44,0.36-0.74,0.38l-1.06,0.08
		c-0.29,0.02-0.55-0.07-0.78-0.27s-0.36-0.44-0.38-0.74l-0.07-0.87c-0.02-0.29,0.07-0.55,0.27-0.79
		C133.73,20.23,133.97,20.11,134.26,20.08z"/>
	<path d="M151.77,34.69l0.87,2.85c0.08,0.26,0.03,0.49-0.13,0.69c-0.16,0.2-0.38,0.3-0.64,0.28l-1.73-0.08
		c-0.33-0.02-0.62-0.13-0.88-0.33c-0.26-0.2-0.42-0.46-0.5-0.77l-0.71-2.63c-0.12-0.45-0.28-0.78-0.49-0.98
		c-0.21-0.2-0.49-0.31-0.84-0.33l-0.69-0.03c-0.11,0-0.17,0.05-0.18,0.16l-0.17,3.6c-0.01,0.29-0.13,0.54-0.36,0.75
		c-0.23,0.21-0.49,0.3-0.78,0.29L143,38.08c-0.29-0.01-0.54-0.13-0.75-0.36c-0.21-0.23-0.3-0.48-0.29-0.78l0.56-11.63
		c0.01-0.31,0.13-0.57,0.33-0.79c0.21-0.23,0.46-0.34,0.77-0.35c1.25-0.05,2.55-0.05,3.91,0.02c3.81,0.18,5.64,1.7,5.5,4.56
		c-0.04,0.8-0.32,1.53-0.84,2.19c-0.52,0.66-1.18,1.12-1.98,1.37c-0.01,0-0.02,0.01-0.02,0.02c0,0.03,0,0.04,0.02,0.04
		c0.37,0.23,0.67,0.52,0.9,0.86C151.36,33.57,151.57,34.06,151.77,34.69z M147.04,30.65c0.65,0.03,1.16-0.11,1.56-0.41
		c0.39-0.31,0.6-0.74,0.62-1.29c0.06-1.21-0.61-1.84-2.01-1.91c-0.32-0.02-0.61-0.01-0.88,0.02c-0.12,0.02-0.18,0.09-0.18,0.2
		L146,30.43c0,0.11,0.05,0.17,0.16,0.18L147.04,30.65z"/>
	<path d="M170.52,27.75c0.29,0.06,0.51,0.22,0.67,0.48s0.21,0.53,0.15,0.81l-1.62,7.31c-0.43,1.95-1.15,3.24-2.14,3.89
		c-1,0.64-2.42,0.76-4.26,0.35c-1.15-0.26-2.16-0.6-3.01-1.04c-0.28-0.14-0.49-0.36-0.62-0.65c-0.13-0.29-0.16-0.6-0.09-0.93
		l0.24-1.08c0.05-0.24,0.2-0.4,0.43-0.5c0.24-0.1,0.46-0.08,0.68,0.06c0.8,0.5,1.59,0.84,2.37,1.01c0.71,0.16,1.27,0.06,1.69-0.29
		s0.75-1.03,0.97-2.05l1.54-6.94c0.06-0.29,0.22-0.51,0.48-0.67c0.26-0.16,0.53-0.21,0.81-0.15L170.52,27.75z"/>
	<path d="M184.72,32.27c0.28,0.1,0.48,0.28,0.61,0.56s0.15,0.55,0.05,0.83l-2.54,7.25c-0.59,1.68-1.47,2.78-2.65,3.31
		c-1.18,0.53-2.62,0.5-4.33-0.1c-1.7-0.6-2.85-1.47-3.44-2.62c-0.59-1.15-0.6-2.56-0.01-4.24l2.54-7.25
		c0.1-0.28,0.28-0.48,0.56-0.61c0.28-0.13,0.55-0.15,0.83-0.05l1.58,0.55c0.28,0.1,0.48,0.28,0.61,0.56s0.15,0.55,0.05,0.83
		l-2.63,7.52c-0.24,0.7-0.29,1.23-0.14,1.6c0.15,0.37,0.52,0.66,1.09,0.86c0.58,0.2,1.04,0.21,1.39,0.01
		c0.35-0.19,0.65-0.64,0.89-1.33l2.63-7.52c0.1-0.28,0.28-0.48,0.56-0.61c0.27-0.13,0.55-0.15,0.83-0.05L184.72,32.27z"/>
	<path d="M198.49,38.74c0.26,0.13,0.44,0.34,0.53,0.63c0.1,0.29,0.08,0.57-0.05,0.83l-5.28,10.49c-0.13,0.26-0.34,0.44-0.63,0.54
		c-0.29,0.1-0.57,0.08-0.83-0.05l-1.29-0.65c-0.65-0.33-0.97-0.85-0.96-1.57l0.04-7.41c0.01-0.01,0-0.02-0.01-0.03
		c-0.01-0.01-0.02,0-0.03,0.01l-2.93,5.82c-0.13,0.26-0.34,0.44-0.63,0.54c-0.29,0.1-0.57,0.08-0.83-0.05l-1.29-0.65
		c-0.26-0.13-0.44-0.34-0.54-0.63c-0.1-0.29-0.08-0.57,0.05-0.83l5.28-10.49c0.13-0.26,0.34-0.44,0.63-0.53s0.57-0.08,0.83,0.05
		l1.29,0.65c0.65,0.33,0.97,0.85,0.96,1.57l-0.04,7.41c-0.01,0.01,0,0.02,0.01,0.03s0.02,0,0.02-0.01l2.93-5.82
		c0.13-0.26,0.34-0.44,0.63-0.54c0.29-0.1,0.57-0.08,0.83,0.05L198.49,38.74z"/>
	<path d="M208.57,51.53c0.24,0.17,0.39,0.4,0.45,0.7c0.06,0.3,0,0.57-0.16,0.81l-3.28,4.82c-0.19,0.27-0.43,0.47-0.73,0.58
		c-0.3,0.11-0.6,0.11-0.89,0c-1.15-0.41-2.27-0.99-3.36-1.73c-1.84-1.25-2.95-2.76-3.32-4.53c-0.37-1.77,0.08-3.59,1.35-5.46
		c1.27-1.87,2.78-2.97,4.52-3.3c1.74-0.33,3.57,0.16,5.48,1.46c0.78,0.53,1.54,1.15,2.29,1.86c0.22,0.21,0.35,0.48,0.37,0.81
		c0.03,0.32-0.05,0.62-0.23,0.88l-0.53,0.77c-0.15,0.22-0.36,0.34-0.62,0.36c-0.27,0.02-0.5-0.07-0.69-0.26
		c-0.62-0.67-1.25-1.22-1.89-1.66c-1.09-0.74-2.08-1.01-2.97-0.81c-0.89,0.2-1.73,0.89-2.53,2.07c-0.81,1.19-1.15,2.22-1.03,3.1
		c0.12,0.88,0.67,1.66,1.65,2.32c0.2,0.14,0.43,0.26,0.7,0.36c0.11,0.04,0.2,0.02,0.26-0.08l1.36-2c0.07-0.09,0.05-0.17-0.05-0.24
		l-1.01-0.69c-0.24-0.16-0.39-0.4-0.45-0.7c-0.06-0.3,0-0.57,0.16-0.81l0.39-0.57c0.16-0.24,0.4-0.39,0.7-0.45
		c0.3-0.06,0.57,0,0.81,0.16L208.57,51.53z"/>
	<path d="M221.8,55.64c0.22,0.19,0.34,0.44,0.36,0.75c0.02,0.31-0.06,0.57-0.26,0.79l-0.58,0.66c-0.19,0.22-0.44,0.34-0.75,0.36
		s-0.57-0.07-0.79-0.26l-3.07-2.68c-0.08-0.08-0.16-0.08-0.23,0l-1.29,1.48c-0.08,0.09-0.07,0.17,0.02,0.24l2.78,2.43
		c0.22,0.19,0.34,0.44,0.36,0.75c0.02,0.31-0.07,0.57-0.26,0.79l-0.45,0.52c-0.19,0.22-0.44,0.34-0.75,0.36s-0.57-0.06-0.79-0.26
		l-2.78-2.43c-0.09-0.08-0.16-0.07-0.23,0l-1.54,1.77c-0.08,0.09-0.07,0.17,0.02,0.24l3.07,2.68c0.22,0.19,0.34,0.44,0.36,0.75
		s-0.07,0.57-0.26,0.79l-0.58,0.66c-0.19,0.22-0.44,0.34-0.74,0.36c-0.3,0.02-0.57-0.06-0.79-0.26l-5.25-4.59
		c-0.22-0.19-0.34-0.44-0.36-0.75s0.07-0.57,0.26-0.79l7.72-8.84c0.19-0.22,0.44-0.34,0.75-0.36s0.57,0.07,0.79,0.26L221.8,55.64z"
		/>
	<path d="M226.9,77.22c0.18,0.23,0.26,0.49,0.23,0.79c-0.03,0.3-0.16,0.55-0.38,0.73L226,79.37c-0.23,0.19-0.49,0.26-0.79,0.23
		c-0.31-0.03-0.55-0.16-0.73-0.38l-4.66-5.69c-0.19-0.23-0.26-0.49-0.23-0.79c0.03-0.3,0.16-0.55,0.38-0.73l9.08-7.44
		c0.22-0.18,0.49-0.26,0.79-0.23s0.55,0.16,0.73,0.38l1.1,1.34c0.18,0.23,0.26,0.49,0.23,0.79c-0.03,0.3-0.16,0.55-0.38,0.73
		l-7.36,6.03c-0.09,0.07-0.1,0.15-0.02,0.24L226.9,77.22z"/>
	<path d="M242.46,81.03c0.16,0.25,0.21,0.52,0.14,0.82c-0.06,0.3-0.22,0.53-0.46,0.69L241.4,83c-0.25,0.16-0.52,0.21-0.82,0.14
		s-0.53-0.22-0.69-0.46l-2.21-3.42c-0.06-0.1-0.14-0.12-0.22-0.06l-1.65,1.07c-0.1,0.06-0.11,0.14-0.05,0.24l2.01,3.1
		c0.16,0.25,0.21,0.52,0.14,0.82c-0.06,0.3-0.22,0.53-0.46,0.69l-0.58,0.37c-0.25,0.16-0.52,0.21-0.82,0.14
		c-0.3-0.06-0.53-0.22-0.69-0.46l-2.01-3.1c-0.06-0.1-0.14-0.12-0.22-0.06l-1.97,1.27c-0.1,0.06-0.11,0.14-0.05,0.24l2.21,3.42
		c0.16,0.25,0.21,0.52,0.14,0.82c-0.07,0.3-0.22,0.53-0.46,0.69l-0.74,0.48c-0.25,0.16-0.52,0.21-0.82,0.14
		c-0.3-0.06-0.53-0.22-0.69-0.46l-3.79-5.86c-0.16-0.25-0.21-0.52-0.14-0.82s0.22-0.53,0.46-0.69l9.86-6.37
		c0.25-0.16,0.52-0.21,0.82-0.14s0.53,0.22,0.69,0.46L242.46,81.03z"/>
	<path d="M249.37,94.25c0.13,0.26,0.14,0.54,0.04,0.83c-0.1,0.29-0.28,0.5-0.54,0.62l-6.9,3.36c-1.6,0.78-3,0.94-4.22,0.49
		c-1.21-0.46-2.21-1.5-3-3.12c-0.79-1.62-0.99-3.05-0.6-4.28c0.39-1.23,1.38-2.24,2.98-3.02l6.9-3.36c0.26-0.13,0.54-0.14,0.83-0.04
		c0.29,0.1,0.5,0.28,0.62,0.54l0.73,1.51c0.13,0.26,0.14,0.54,0.04,0.83c-0.1,0.29-0.28,0.5-0.54,0.62l-7.16,3.49
		c-0.66,0.32-1.07,0.67-1.22,1.04c-0.15,0.37-0.09,0.83,0.17,1.38c0.27,0.55,0.59,0.88,0.98,0.99s0.91,0,1.57-0.32l7.16-3.49
		c0.26-0.13,0.54-0.14,0.83-0.04c0.29,0.1,0.5,0.28,0.62,0.54L249.37,94.25z"/>
	<path d="M254.44,108.05c0.09,0.28,0.07,0.55-0.06,0.83c-0.14,0.27-0.34,0.46-0.62,0.55l-0.92,0.31c-0.28,0.09-0.55,0.07-0.83-0.06
		c-0.27-0.14-0.46-0.34-0.55-0.62l-0.75-2.2c-0.04-0.11-0.11-0.14-0.22-0.11l-9,3.06c-0.28,0.09-0.55,0.08-0.82-0.05
		s-0.46-0.33-0.55-0.61l-0.56-1.66c-0.09-0.28-0.07-0.55,0.06-0.82c0.14-0.27,0.34-0.45,0.62-0.54l9-3.06
		c0.11-0.04,0.14-0.11,0.11-0.22l-0.75-2.2c-0.09-0.28-0.07-0.55,0.06-0.83c0.13-0.27,0.34-0.46,0.62-0.55l0.92-0.31
		c0.28-0.09,0.55-0.07,0.83,0.06c0.27,0.13,0.46,0.34,0.55,0.62L254.44,108.05z"/>
	<path d="M257.42,120.61c0.06,0.29,0.01,0.56-0.16,0.81c-0.17,0.26-0.39,0.42-0.68,0.48l-0.86,0.18c-0.29,0.06-0.56,0.01-0.81-0.16
		c-0.26-0.17-0.42-0.39-0.48-0.68l-0.85-3.99c-0.02-0.11-0.09-0.16-0.19-0.14l-1.92,0.41c-0.11,0.02-0.16,0.09-0.13,0.2l0.77,3.62
		c0.06,0.29,0.01,0.56-0.16,0.81c-0.17,0.26-0.39,0.42-0.68,0.48l-0.67,0.14c-0.28,0.06-0.56,0.01-0.81-0.16
		c-0.26-0.17-0.41-0.39-0.48-0.68l-0.77-3.62c-0.02-0.11-0.09-0.16-0.19-0.14l-2.29,0.49c-0.11,0.02-0.16,0.09-0.13,0.2l0.85,3.99
		c0.06,0.29,0.01,0.56-0.16,0.81c-0.17,0.26-0.39,0.42-0.68,0.48l-0.86,0.18c-0.29,0.06-0.56,0.01-0.81-0.16
		c-0.26-0.17-0.42-0.39-0.48-0.68l-1.46-6.82c-0.06-0.29-0.01-0.56,0.16-0.81c0.17-0.26,0.39-0.41,0.68-0.48l11.48-2.45
		c0.29-0.06,0.56-0.01,0.81,0.16c0.26,0.17,0.41,0.39,0.48,0.68L257.42,120.61z"/>
</g>
<g>
	<path d="M55.88,211.99c0.28,0.35,0.39,0.75,0.34,1.22c-0.05,0.46-0.25,0.83-0.6,1.11l-2.19,1.74c-0.35,0.28-0.76,0.39-1.22,0.34
		c-0.46-0.05-0.83-0.25-1.11-0.6l-1.92-2.42c-0.28-0.35-0.39-0.75-0.34-1.22c0.05-0.46,0.25-0.83,0.6-1.11l2.19-1.74
		c0.35-0.28,0.76-0.39,1.22-0.34c0.46,0.05,0.83,0.25,1.11,0.6L55.88,211.99z"/>
	<path d="M105.78,244.71c2.3,1.66,3.76,3.18,4.4,4.58c0.64,1.4,0.65,2.97,0.03,4.71c-1.42,4.03-4.74,5.12-9.96,3.27
		c-1.67-0.59-3.08-1.4-4.24-2.42c-0.36-0.31-0.59-0.72-0.69-1.23c-0.1-0.51-0.06-1.01,0.12-1.5l0.49-1.4
		c0.12-0.35,0.36-0.55,0.71-0.61c0.35-0.06,0.66,0.04,0.92,0.29c1.21,1.19,2.51,2.03,3.92,2.53c1.65,0.58,2.66,0.32,3.05-0.77
		c0.18-0.51,0.19-0.95,0.03-1.32c-0.16-0.36-0.54-0.78-1.14-1.23c-2.17-1.61-3.59-3.17-4.26-4.67c-0.67-1.5-0.71-3.09-0.13-4.76
		c0.63-1.79,1.78-2.97,3.43-3.54c1.65-0.57,3.71-0.42,6.16,0.45c1.76,0.62,3.25,1.37,4.49,2.24c0.39,0.28,0.66,0.67,0.79,1.16
		c0.14,0.49,0.12,0.97-0.05,1.45l-0.48,1.35c-0.13,0.37-0.38,0.6-0.76,0.71c-0.38,0.1-0.72,0.03-1.04-0.23
		c-1.44-1.11-2.83-1.9-4.17-2.37c-1.5-0.53-2.44-0.27-2.8,0.77C104.3,243.05,104.69,243.91,105.78,244.71z"/>
	<path d="M123.36,241.28c0.44,0.09,0.79,0.33,1.04,0.71c0.26,0.39,0.34,0.8,0.26,1.24l-3.53,17.59c-0.09,0.44-0.33,0.79-0.71,1.04
		c-0.39,0.26-0.8,0.34-1.24,0.25l-3.03-0.61c-0.44-0.09-0.79-0.32-1.04-0.71c-0.26-0.39-0.34-0.8-0.26-1.24l3.53-17.59
		c0.09-0.44,0.33-0.79,0.71-1.04c0.39-0.26,0.8-0.35,1.24-0.26L123.36,241.28z"/>
	<path d="M141.45,243.09c0.45,0.02,0.82,0.21,1.13,0.56c0.31,0.35,0.45,0.75,0.43,1.19l-0.07,1.34c-0.02,0.45-0.21,0.82-0.56,1.13
		c-0.35,0.31-0.75,0.45-1.19,0.43l-6.22-0.35c-0.17-0.01-0.27,0.06-0.27,0.22l-0.17,2.99c-0.01,0.17,0.07,0.27,0.25,0.28l5.64,0.31
		c0.45,0.02,0.82,0.21,1.14,0.56c0.31,0.35,0.46,0.75,0.43,1.19l-0.06,1.05c-0.03,0.45-0.21,0.83-0.56,1.13
		c-0.35,0.31-0.75,0.46-1.19,0.43l-5.64-0.31c-0.17-0.01-0.27,0.06-0.27,0.22l-0.2,3.58c-0.01,0.17,0.07,0.27,0.25,0.28l6.22,0.35
		c0.45,0.02,0.83,0.21,1.14,0.56c0.31,0.35,0.45,0.75,0.43,1.19l-0.07,1.34c-0.03,0.45-0.21,0.83-0.56,1.14
		c-0.35,0.31-0.75,0.45-1.19,0.43l-10.64-0.59c-0.45-0.02-0.82-0.21-1.14-0.56s-0.45-0.74-0.43-1.19l1-17.91
		c0.02-0.45,0.21-0.82,0.56-1.14c0.35-0.31,0.74-0.46,1.19-0.43L141.45,243.09z"/>
	<path d="M162.38,249.25c0.44-0.06,0.85,0.05,1.22,0.33c0.37,0.28,0.59,0.64,0.65,1.09l1.23,8.83c0.07,0.5-0.01,0.97-0.23,1.4
		c-0.22,0.43-0.56,0.74-1,0.92c-1.72,0.71-3.58,1.2-5.58,1.48c-3.36,0.47-6.16-0.11-8.4-1.73c-2.24-1.62-3.59-4.14-4.07-7.56
		c-0.48-3.42,0.11-6.21,1.75-8.37c1.64-2.16,4.21-3.48,7.71-3.97c1.42-0.2,2.92-0.28,4.49-0.24c0.47,0.01,0.89,0.19,1.25,0.53
		c0.36,0.34,0.58,0.75,0.64,1.23l0.2,1.41c0.06,0.4-0.06,0.75-0.34,1.05s-0.63,0.43-1.05,0.41c-1.39-0.12-2.67-0.1-3.84,0.06
		c-2,0.28-3.4,0.99-4.2,2.13c-0.8,1.14-1.05,2.79-0.75,4.94c0.3,2.17,0.97,3.7,2.02,4.57c1.04,0.87,2.46,1.18,4.25,0.94
		c0.37-0.05,0.75-0.15,1.16-0.31c0.17-0.06,0.24-0.18,0.22-0.35l-0.51-3.66c-0.02-0.17-0.12-0.25-0.29-0.22l-1.85,0.26
		c-0.44,0.06-0.85-0.05-1.22-0.33s-0.59-0.64-0.65-1.08l-0.14-1.04c-0.06-0.44,0.05-0.85,0.33-1.22c0.28-0.37,0.64-0.59,1.08-0.65
		L162.38,249.25z"/>
	<path d="M178.08,236.37c0.42-0.14,0.84-0.1,1.26,0.12c0.42,0.21,0.69,0.53,0.83,0.96l0.41,1.28c0.14,0.43,0.1,0.85-0.12,1.26
		c-0.21,0.42-0.53,0.69-0.96,0.83l-5.93,1.91c-0.17,0.05-0.22,0.15-0.18,0.3l0.92,2.86c0.05,0.17,0.16,0.22,0.33,0.17l5.38-1.73
		c0.42-0.14,0.84-0.1,1.26,0.11c0.41,0.21,0.69,0.53,0.83,0.96l0.32,1c0.14,0.43,0.1,0.85-0.11,1.26c-0.21,0.42-0.53,0.69-0.96,0.83
		l-5.38,1.73c-0.17,0.05-0.23,0.15-0.18,0.3l1.1,3.41c0.05,0.17,0.16,0.22,0.33,0.17l5.93-1.91c0.42-0.14,0.84-0.1,1.26,0.12
		c0.42,0.21,0.69,0.53,0.83,0.96l0.41,1.28c0.14,0.42,0.1,0.84-0.12,1.26c-0.21,0.42-0.53,0.69-0.96,0.83l-10.15,3.26
		c-0.43,0.14-0.85,0.1-1.26-0.11c-0.42-0.21-0.69-0.53-0.83-0.96l-5.49-17.08c-0.14-0.42-0.1-0.84,0.12-1.26
		c0.21-0.42,0.53-0.69,0.96-0.83L178.08,236.37z"/>
	<path d="M196.1,227.4c0.39-0.21,0.81-0.25,1.26-0.12c0.45,0.13,0.78,0.4,0.99,0.79l8.58,15.75c0.21,0.39,0.25,0.81,0.12,1.26
		c-0.13,0.45-0.39,0.78-0.79,0.99l-1.94,1.06c-0.97,0.53-1.91,0.48-2.81-0.16l-9.27-6.49c-0.01-0.02-0.02-0.02-0.04-0.01
		c-0.02,0.01-0.02,0.02-0.01,0.04l4.76,8.75c0.21,0.39,0.25,0.81,0.12,1.26s-0.39,0.78-0.79,0.99l-1.94,1.06
		c-0.39,0.21-0.81,0.25-1.26,0.12s-0.78-0.39-0.99-0.79l-8.58-15.75c-0.21-0.39-0.25-0.81-0.12-1.26c0.13-0.45,0.39-0.78,0.79-0.99
		l1.94-1.06c0.97-0.53,1.91-0.48,2.81,0.16l9.27,6.49c0.01,0.02,0.02,0.02,0.04,0.01c0.02-0.01,0.02-0.02,0.01-0.04l-4.76-8.75
		c-0.21-0.39-0.25-0.81-0.12-1.26c0.13-0.45,0.39-0.78,0.79-0.99L196.1,227.4z"/>
	<path d="M244.11,184.6c0.18-0.41,0.49-0.7,0.92-0.87c0.43-0.17,0.86-0.17,1.27,0.01l2.56,1.12c0.41,0.18,0.7,0.49,0.87,0.92
		c0.17,0.43,0.17,0.86-0.01,1.26l-1.24,2.83c-0.18,0.41-0.48,0.7-0.92,0.87c-0.43,0.17-0.86,0.17-1.27-0.01l-2.56-1.12
		c-0.41-0.18-0.7-0.49-0.87-0.92c-0.17-0.43-0.17-0.86,0.01-1.27L244.11,184.6z"/>
</g>
<path d="M148.39,146.58c4.63-0.04,8.72,3,10.05,7.39l12.28-1.51c0.8-0.1,1.44-0.48,1.94-1.13c0.5-0.66,0.7-1.38,0.6-2.18l-0.15-1.19
	c-0.1-0.8-0.47-1.45-1.11-1.97c-0.64-0.52-1.36-0.73-2.16-0.63l-12.05,1.48c-0.28,0.03-0.43-0.09-0.47-0.36l-1.03-8.41
	c-0.03-0.28,0.09-0.43,0.36-0.47l11.01-1.35c0.8-0.1,1.44-0.48,1.94-1.13c0.5-0.66,0.7-1.38,0.6-2.18l-0.1-0.78
	c-0.1-0.8-0.47-1.45-1.11-1.97c-0.64-0.52-1.36-0.73-2.16-0.63l-11.01,1.35c-0.28,0.03-0.43-0.1-0.47-0.42l-0.84-6.85
	c-0.03-0.28,0.09-0.43,0.36-0.47l12.05-1.48c0.8-0.1,1.44-0.47,1.94-1.13s0.7-1.39,0.6-2.18l-0.15-1.19
	c-0.1-0.8-0.47-1.45-1.11-1.97c-0.64-0.52-1.36-0.73-2.16-0.63l-18.38,2.26c-0.8,0.1-1.44,0.48-1.94,1.13
	c-0.5,0.66-0.7,1.39-0.6,2.18L148.39,146.58z"/>
<path class="st0" d="M178.13,167.7c-0.99,0.12-1.9,0.45-2.7,0.95c-0.95-3.02-3.95-5.03-7.2-4.63c-1.02,0.13-1.96,0.48-2.77,1
	c-1.07-2.81-3.96-4.64-7.07-4.26c-0.95,0.12-1.82,0.43-2.59,0.88l-0.67-5.46c-0.45-3.67-3.8-6.28-7.46-5.83
	c-3.67,0.45-6.28,3.8-5.83,7.46l3.2,26.1l-3.26-5.21c-1.96-3.13-6.1-4.09-9.23-2.13c-3.13,1.96-4.09,6.1-2.13,9.23l17.52,28.04
	l37.22-4.57l0.41-1.17c0.13-0.36,3.15-9.03,2.17-17.06l-2.15-17.51C185.15,169.87,181.8,167.25,178.13,167.7z M183.76,191.53
	c0.67,5.48-0.86,11.56-1.6,14.06L150,209.54l-16.17-25.87c-0.78-1.25-0.4-2.91,0.85-3.69s2.91-0.4,3.69,0.85l8.57,13.71l3.4-0.4
	l-4.52-36.81c-0.18-1.47,0.87-2.81,2.33-2.99s2.81,0.87,2.99,2.33l2.55,20.78l3.99-0.49l-1.13-9.23c-0.18-1.47,0.87-2.81,2.33-2.99
	s2.81,0.87,2.99,2.33l1.13,9.23l3.99-0.49l-0.59-4.82c-0.18-1.47,0.87-2.81,2.33-2.99c1.47-0.18,2.81,0.87,2.99,2.33l0.59,4.82
	l3.99-0.49c-0.18-1.47,0.87-2.81,2.33-2.99c1.47-0.18,2.81,0.87,2.99,2.33L183.76,191.53L183.76,191.53z"/>
</svg>
